<svg width="42" height="72" viewBox="0 0 42 72" fill="none" xmlns="http://www.w3.org/2000/svg">
<path d="M23.1876 60.8353C23.0773 61.0258 22.9454 61.1771 22.7999 61.2803C22.6543 61.3835 22.4979 61.4365 22.34 61.4361C22.1821 61.4357 22.0258 61.3819 21.8805 61.278C21.7351 61.174 21.6035 61.022 21.4935 60.8309L8.0289 37.5295C7.79241 37.1203 7.66006 36.5715 7.66006 36C7.66006 35.4286 7.79241 34.8798 8.0289 34.4706L21.4935 11.1692C21.6037 10.9783 21.7354 10.8267 21.8809 10.7231C22.0263 10.6195 22.1827 10.5662 22.3406 10.5662C22.4985 10.5662 22.6548 10.6195 22.8003 10.7231C22.9458 10.8267 23.0775 10.9783 23.1876 11.1692C23.4143 11.5605 23.5411 12.0858 23.5411 12.6329C23.5411 13.1799 23.4143 13.7053 23.1876 14.0966L10.5259 36L23.1876 57.9122C23.4135 58.3033 23.5399 58.8277 23.5399 59.3737C23.5399 59.9197 23.4135 60.4441 23.1876 60.8353ZM33.581 60.8353C33.4707 61.0258 33.3388 61.1771 33.1932 61.2803C33.0477 61.3835 32.8913 61.4365 32.7334 61.4361C32.5755 61.4357 32.4192 61.3819 32.2738 61.278C32.1284 61.174 31.9969 61.022 31.8869 60.8309L18.4223 37.5295C18.1858 37.1203 18.0534 36.5715 18.0534 36C18.0534 35.4286 18.1858 34.8798 18.4223 34.4706L31.8869 11.1692C31.997 10.9783 32.1287 10.8267 32.2742 10.7231C32.4197 10.6195 32.576 10.5662 32.7339 10.5662C32.8918 10.5662 33.0482 10.6195 33.1936 10.7231C33.3391 10.8267 33.4708 10.9783 33.581 11.1692C33.8076 11.5605 33.9345 12.0858 33.9345 12.6329C33.9345 13.1799 33.8076 13.7053 33.581 14.0966L20.9193 36L33.581 57.9122C33.8069 58.3033 33.9332 58.8277 33.9332 59.3737C33.9332 59.9197 33.8069 60.4441 33.581 60.8353Z" fill="white" fill-opacity="0.75"/>
</svg>
